<?xml version="1.0" encoding="UTF-8" standalone="no"?>
<!-- Created with Inkscape (http://www.inkscape.org/) -->

<svg
   xmlns:dc="http://purl.org/dc/elements/1.1/"
   xmlns:cc="http://creativecommons.org/ns#"
   xmlns:rdf="http://www.w3.org/1999/02/22-rdf-syntax-ns#"
   xmlns:svg="http://www.w3.org/2000/svg"
   xmlns="http://www.w3.org/2000/svg"
   xmlns:sodipodi="http://sodipodi.sourceforge.net/DTD/sodipodi-0.dtd"
   xmlns:inkscape="http://www.inkscape.org/namespaces/inkscape"
   id="svg2"
   version="1.1"
   inkscape:version="0.91 r13725"
   xml:space="preserve"
   width="400"
   height="250"
   viewBox="0 0 400.00001 250"
   sodipodi:docname="logowait.svg"><metadata
     id="metadata8"><rdf:RDF><cc:Work
         rdf:about=""><dc:format>image/svg+xml</dc:format><dc:type
           rdf:resource="http://purl.org/dc/dcmitype/StillImage" /><dc:title></dc:title></cc:Work></rdf:RDF></metadata><defs
     id="defs6" /><sodipodi:namedview
     pagecolor="#ffffff"
     bordercolor="#666666"
     borderopacity="1"
     objecttolerance="10"
     gridtolerance="10"
     guidetolerance="10"
     inkscape:pageopacity="0"
     inkscape:pageshadow="2"
     inkscape:window-width="1920"
     inkscape:window-height="1061"
     id="namedview4"
     showgrid="false"
     inkscape:zoom="1.2001164"
     inkscape:cx="584.64569"
     inkscape:cy="372.04724"
     inkscape:window-x="1362"
     inkscape:window-y="-4"
     inkscape:window-maximized="1"
     inkscape:current-layer="g10" /><g
     id="g10"
     inkscape:groupmode="layer"
     inkscape:label="Winning Designs"
     transform="matrix(1.25,0,0,-1.25,0,250.00002)"><g
       id="g4152"
       transform="matrix(0.90253615,0,0,0.90253615,-244.57198,-173.1602)"><path
         d="m 479.1682,381.4413 0.2353,-0.5094 0.2424,-0.5267 c 0.0975,-0.2118 0.2897,-0.3572 0.5195,-0.4207 0.2291,-0.064 0.4907,-0.028 0.7487,0.0701 l 3.1807,1.2143 c 0.1772,-0.1049 0.4411,-0.1114 0.6877,0.002 l 0.6582,0.3042 c 0.3507,0.1615 0.5392,0.5091 0.4184,0.7718 l -0.8966,1.9449 c 0.1939,0.0984 0.3884,0.197 0.5817,0.2956 -6e-4,-0.1116 0.0215,-0.2225 0.07,-0.3265 l 0.2537,-0.5513 0.2537,-0.55 c 0.1023,-0.2219 0.303,-0.3747 0.5434,-0.441 0.2401,-0.0664 0.5142,-0.0292 0.7841,0.0737 l 3.3267,1.2705 c 0.1862,-0.1103 0.4621,-0.1168 0.72,0.002 l 0.6888,0.3172 c 0.3668,0.1695 0.5644,0.5332 0.4374,0.8073 l -1.1764,2.5532 c 5.4068,3.0209 10.5835,6.2685 16.0266,9.9006 5.5457,4.6777 1.9054,5.9822 -0.9176,5.1281 -2.183,0.5363 -5.1928,-0.1332 -9.0286,-2.0078 l -22.815,-12.7839 c -5.3813,-0.6656 -10.762,-1.3306 -16.1589,-1.844 -2.6396,-0.2514 -4.4356,-0.6602 -5.3543,-1.7402 l 13.9955,-0.6284 -6.8704,-3.8492 c -3.924,1.2992 -7.8976,2.4577 -11.772,3.8982 -0.756,0.2807 -1.4502,0.3308 -2.2946,-0.231 -0.5338,-0.3549 -1.0789,-0.6936 -1.618,-1.0406 1.8742,-2.1288 3.9257,-4.3826 5.8002,-6.5112 0.1939,-0.2202 3.7874,0.4816 3.9813,0.2614 -1.7581,-0.3997 -7.094,-1.5965 -8.8523,-1.997 -0.5398,-0.3464 -0.9071,-0.4606 -1.4463,-0.8079 2.0957,-0.005 4.3093,0.0629 6.4052,0.0576 -0.1777,-0.2982 -0.6452,-0.9032 -0.8229,-1.2005 10.0276,1.9998 19.9967,4.2919 29.4647,9.0947 m -31.9538,-10.3781 c -21.3956,-8.9594 -63.2599,-32.0842 -58.0575,-60.0851 1.7719,-9.5363 9.6026,-17.1978 24.785,-20.6084 15.1826,-3.4098 34.9447,-1.313 53.2482,5.254 18.4913,6.6336 37.1515,20.2365 44.7177,30.2553 7.5657,10.0182 7.9852,14.1092 8.066,20.321 0.0782,6.0103 -2.1903,11.3425 -6.4256,15.6144 6.823,-5.0038 10.9367,-11.6796 11.6878,-19.5169 0.7827,-8.1705 0.0777,-14.5519 -9.3089,-27.3189 -9.3873,-12.7666 -31.5091,-28.8649 -53.7441,-36.746 -21.9798,-7.7908 -45.5919,-9.9134 -63.2222,-5.285 -17.6304,4.6279 -26.1686,14.232 -27.667,25.8897 -4.5712,35.5476 55.4734,67.9536 75.9206,72.2259 m -38.0248,-76.496 0,46.7759 23.8056,11.7386 0,-61.5096 c -6.3524,-0.2412 -12.6158,0.1897 -18.4467,1.499 -1.7833,0.4011 -3.587,0.8943 -5.3589,1.4961 z m 78.1447,85.3107 0,-71.244 c -2.954,-1.848 -5.9851,-3.5691 -9.0564,-5.1449 -3.89,-1.9945 -7.9067,-3.7834 -12.0229,-5.2597 -0.8949,-0.3209 -1.8045,-0.6338 -2.7261,-0.9383 l 0,70.8483 23.8054,11.7386 z m -50.6398,-88.0909 0,63.1193 23.1324,11.4078 0,-70.1813 c -7.31,-2.1549 -15.2391,-3.7349 -23.1324,-4.3458"
         style="fill:#e6e6e6;fill-opacity:1;fill-rule:evenodd;stroke:none"
         id="path16"
         inkscape:connector-curvature="0" /><path
         d="m 559.0293,236.9115 c 3.9773,0 6.9247,-0.2472 8.8415,-0.7351 1.9253,-0.4949 3.6272,-1.3254 5.1049,-2.4913 1.893,-1.4698 3.3219,-3.3951 4.2976,-5.783 0.9743,-2.3882 1.4618,-5.1525 1.4618,-8.3075 0,-3.1473 -0.4875,-5.9187 -1.4618,-8.2987 -0.9757,-2.3729 -2.4046,-4.3067 -4.2976,-5.792 -1.4777,-1.1495 -3.1796,-1.9724 -5.1049,-2.4673 -1.9168,-0.4878 -4.8642,-0.7356 -8.8415,-0.7356 l -15.2323,0 0,34.6105 15.2323,0 z m 1.5896,-4.3294 -11.9333,0 0,-25.9279 11.9333,0 c 2.2921,0 4.1539,0.1927 5.5673,0.5757 1.4221,0.3835 2.62,0.9904 3.5867,1.8371 1.1979,1.0307 2.1483,2.4843 2.8437,4.3611 0.6942,1.8768 1.0377,3.9546 1.0377,6.215 0,2.2765 -0.3435,4.3441 -1.0377,6.2144 -0.6954,1.8604 -1.6458,3.3063 -2.8437,4.3361 -0.9667,0.847 -2.1646,1.4545 -3.5867,1.829 -1.4134,0.3764 -3.2752,0.5595 -5.5673,0.5595 z m 42.5016,-14.5536 -13.4586,0 0,-11.0225 12.7559,0 c 2.9072,0 5.0085,0.4149 6.3017,1.2384 1.2937,0.8311 1.9414,2.1566 1.9414,3.9773 0,2.0132 -0.5992,3.4835 -1.8057,4.4178 -1.1979,0.9258 -3.1064,1.389 -5.7347,1.389 z m -0.0882,14.5051 -13.3704,0 0,-10.008 12.3165,0 c 2.8193,0 4.8093,0.3833 5.959,1.1583 1.1418,0.775 1.7175,2.061 1.7175,3.8664 0,1.7493 -0.5196,3.0186 -1.5661,3.8021 -1.0463,0.7912 -2.7321,1.1812 -5.0565,1.1812 z m 1.0066,4.3779 c 3.3627,0 5.9596,-0.7583 7.7805,-2.2689 1.8134,-1.5165 2.723,-3.6655 2.723,-6.4531 0,-1.8456 -0.4547,-3.395 -1.3572,-4.6488 -0.9032,-1.2543 -2.2771,-2.2532 -4.1145,-2.9803 2.1977,-0.423 3.8749,-1.3411 5.0252,-2.7547 1.158,-1.4057 1.7326,-3.2273 1.7326,-5.44 0,-3.4183 -0.9975,-5.9502 -2.9954,-7.5966 -1.9964,-1.6446 -5.0879,-2.4681 -9.265,-2.4681 l -18.7952,0 0,34.6105 19.266,0 z m -199.7759,0 c 3.9779,0 6.9253,-0.2472 8.8421,-0.7351 1.9253,-0.4949 3.6272,-1.3254 5.1049,-2.4913 1.8927,-1.4698 3.3219,-3.3951 4.2973,-5.783 0.9743,-2.3882 1.4621,-5.1525 1.4621,-8.3075 0,-3.1473 -0.4878,-5.9187 -1.4621,-8.2987 -0.9754,-2.3729 -2.4046,-4.3067 -4.2973,-5.792 -1.4777,-1.1495 -3.1796,-1.9724 -5.1049,-2.4673 -1.9168,-0.4878 -4.8642,-0.7356 -8.8421,-0.7356 l -15.2317,0 0,34.6105 15.2317,0 z m 1.5902,-4.3294 -11.9338,0 0,-25.9279 11.9338,0 c 2.2918,0 4.1536,0.1927 5.5673,0.5757 1.4218,0.3835 2.62,0.9904 3.5866,1.8371 1.198,1.0307 2.149,2.4843 2.8438,4.3611 0.6942,1.8768 1.0377,3.9546 1.0377,6.215 0,2.2765 -0.3435,4.3441 -1.0377,6.2144 -0.6948,1.8604 -1.6458,3.3063 -2.8438,4.3361 -0.9666,0.847 -2.1648,1.4545 -3.5866,1.829 -1.4137,0.3764 -3.2755,0.5595 -5.5673,0.5595 z m 30.8962,-15.9111 13.6029,0 -6.6064,14.7693 -6.9965,-14.7693 z m -11.8374,-14.37 16.4304,34.6105 5.12,0 15.3997,-34.6105 -5.0796,0 -4.4176,9.8728 -17.6683,0 -4.6171,-9.8728 -5.1675,0 z m 52.0151,30.098 0,-30.098 -4.8874,0 0,30.098 -13.1321,0 0,4.5125 31.1921,0 0,-4.5125 -13.1726,0 z m 21.6956,-15.728 13.6023,0 -6.6056,14.7693 -6.9967,-14.7693 z m -11.8372,-14.37 16.4304,34.6105 5.1197,0 15.4001,-34.6105 -5.0797,0 -4.4178,9.8728 -17.6681,0 -4.6171,-9.8728 -5.1675,0 z m -194.254,14.37 13.6026,0 -6.6062,14.7693 -6.9964,-14.7693 z m -11.8375,-14.37 16.4304,34.6105 5.12,0 15.3998,-34.6105 -5.0797,0 -4.4178,9.8728 -17.6687,0 -4.6165,-9.8728 -5.1675,0 z m 41.3512,0 0,34.6105 4.8887,0 0,-34.6105 -4.8887,0 z m 29.0591,30.4254 -11.0222,0 0,-11.3114 11.4454,0 c 3.4594,0 5.8791,0.4315 7.253,1.2861 1.3743,0.8629 2.0611,2.3173 2.0611,4.3775 0,2.0929 -0.6786,3.5635 -2.037,4.3935 -1.358,0.839 -3.9223,1.2543 -7.7003,1.2543 z m -15.8632,-30.4254 0,34.6105 18.2043,0 c 4.0097,0 7.0612,-0.8062 9.1455,-2.4112 2.0928,-1.6064 3.1396,-3.9546 3.1396,-7.0463 0,-2.2119 -0.4955,-4.0258 -1.4865,-5.4309 -0.9904,-1.3981 -2.4757,-2.4129 -4.4574,-3.0439 1.7506,-0.2639 3.0282,-0.9023 3.85,-1.9168 0.8149,-1.0136 1.3028,-2.5636 1.4618,-4.6564 l 0.4232,-5.5908 c 0.1046,-1.2946 0.2554,-2.2453 0.4399,-2.8522 0.1919,-0.6081 0.4632,-1.1671 0.8229,-1.662 l -5.7118,0 c -0.1675,0.392 -0.3033,0.8547 -0.3985,1.4057 -0.0879,0.5428 -0.1675,1.2784 -0.2322,2.1977 l -0.4232,5.1276 c -0.1993,2.38 -0.7911,4.0011 -1.7654,4.8487 -0.9743,0.8543 -2.7074,1.2775 -5.1843,1.2775 l -12.9869,0 0,-14.8572 -4.841,0 z"
         style="fill:#e6e6e6;fill-opacity:1;fill-rule:nonzero;stroke:none"
         id="path22"
         inkscape:connector-curvature="0" /></g></g></svg>